<svg id="icon" xmlns="http://www.w3.org/2000/svg" viewBox="0 0 512 512"><defs><style>.cls-1{fill:#fff;}</style></defs><title>icon-link</title><path class="cls-1" d="M256,0C114.615,0,0,114.615,0,256S114.615,512,256,512,512,397.385,512,256,397.385,0,256,0ZM136.816,351.347a95.346,95.346,0,0,1,.008-190.693h95.334A95.345,95.345,0,0,1,327.5,256a93.788,93.788,0,0,1-3.366,23.842l-44.3-.008a22.832,22.832,0,0,1-5.959-1.218A47.19,47.19,0,0,0,279.833,256a47.7,47.7,0,0,0-47.667-47.667l-95.342-.008a47.679,47.679,0,0,0-.008,95.359l33.932-.008a119.535,119.535,0,0,0,38.327,47.676H136.816Zm238.368,0-95.35-.016a94.221,94.221,0,0,1-91.976-119.168h44.31a22.455,22.455,0,0,1,5.983,1.21A46.878,46.878,0,0,0,232.167,256a47.717,47.717,0,0,0,47.667,47.667h95.334a47.671,47.671,0,1,0,.008-95.342l-33.924.016a119.565,119.565,0,0,0-38.318-47.684h72.241A95.347,95.347,0,0,1,375.184,351.346Z"/></svg>